Coordinates
version=1
nRows=21
nColumns=22
inDegrees=yes

Units are S.I. units (second, meters, Newtons, ...)
If the header above contains a line with 'inDegrees', this indicates whether rotational values are in degrees (yes) or radians (no).

endheader
time	pelvis_tilt	pelvis_list	pelvis_rotation	pelvis_tx	pelvis_ty	pelvis_tz	hip_flexion_r	hip_adduction_r	hip_rotation_r	knee_angle_r	ankle_angle_r	subtalar_angle_r	hip_flexion_l	hip_adduction_l	hip_rotation_l	knee_angle_l	ankle_angle_l	subtalar_angle_l	lumbar_extension	lumbar_bending	lumbar_rotation
      0.01000000	      0.18233941	     -4.27139657	     -7.28782715	     -1.37372888	      1.02547751	     -0.46899263	      0.92067842	      5.30930465	     -6.00582653	     -9.60852401	      8.39571524	     -4.54741862	      0.60168794	     -2.32888565	     -6.43323668	    -10.45942603	     11.46210896	     -1.51278058	     -9.20310558	      4.73581892	      0.15742937
      0.02000000	      0.18631711	     -4.27488891	     -7.29940538	     -1.37368735	      1.02548242	     -0.46898651	      0.91546647	      5.31125195	     -6.00749763	     -9.61103447	      8.39452441	     -4.54700022	      0.59829610	     -2.33083423	     -6.43030608	    -10.46885822	     11.46179323	     -1.51280756	     -9.19584573	      4.73245632	      0.15300518
      0.03000000	      0.19082702	     -4.27919254	     -7.31424772	     -1.37364742	      1.02548974	     -0.46897526	      0.90999963	      5.31399176	     -6.00821935	     -9.61344734	      8.39365488	     -4.54621390	      0.59526806	     -2.33368745	     -6.42802330	    -10.48110124	     11.46200254	     -1.51289021	     -9.18997185	      4.72779016	      0.14709278
      0.04000000	      0.20675785	     -4.29134732	     -7.32725901	     -1.37365701	      1.02551246	     -0.46896803	      0.89294246	      5.32467262	     -5.98314699	     -9.61378700	      8.39198331	     -4.54102432	      0.60276315	     -2.34735724	     -6.45232146	    -10.53365209	     11.47778986	     -1.51535839	     -9.21130265	      4.73003677	      0.12345611
      0.05000000	      0.21026154	     -4.29675319	     -7.34426054	     -1.37360812	      1.02552149	     -0.46894821	      0.88700566	      5.32915341	     -5.98375436	     -9.61424257	      8.39223119	     -4.54086384	      0.59789766	     -2.35136212	     -6.45116671	    -10.54265651	     11.47940297	     -1.51559439	     -9.20246827	      4.72297098	      0.11809857
      0.06000000	      0.22259043	     -4.31389692	     -7.36778502	     -1.37358141	      1.02553853	     -0.46890977	      0.86079267	      5.34823078	     -5.93525613	     -9.59651893	      8.39645707	     -4.54518468	      0.59663951	     -2.37177355	     -6.49754601	    -10.57979533	     11.51369324	     -1.52245275	     -9.21347868	      4.72795023	      0.08969232
      0.07000000	      0.22407895	     -4.31953653	     -7.38864211	     -1.37355338	      1.02554425	     -0.46887867	      0.85697275	      5.35360864	     -5.93629271	     -9.59500681	      8.39611035	     -4.54566620	      0.59363516	     -2.37685158	     -6.49535946	    -10.58747342	     11.51478082	     -1.52285457	     -9.21032786	      4.71850343	      0.08419833
      0.08000000	      0.23965675	     -4.34480122	     -7.42562936	     -1.37353198	      1.02557036	     -0.46880366	      0.81997321	      5.38334330	     -5.86910237	     -9.56476522	      8.38170504	     -4.56411503	      0.58411383	     -2.40723649	     -6.55936379	    -10.62255166	     11.55536557	     -1.53479669	     -9.23015078	      4.72614928	      0.08727320
      0.09000000	      0.23962429	     -4.34973436	     -7.44780714	     -1.37351432	      1.02557417	     -0.46876658	      0.81821921	      5.38826340	     -5.86996548	     -9.56393589	      8.38119779	     -4.56457803	      0.58152786	     -2.41192725	     -6.55720703	    -10.62735559	     11.55525055	     -1.53496156	     -9.22976178	      4.71637543	      0.07680002
      0.10000000	      0.24296998	     -4.35765548	     -7.47202570	     -1.37350306	      1.02558482	     -0.46872692	      0.81099222	      5.39706947	     -5.83798811	     -9.56139453	      8.37497491	     -4.56831410	      0.57616717	     -2.42077319	     -6.58304779	    -10.63441876	     11.56135086	     -1.53722844	     -9.23525580	      4.71265316	      0.03495071
      0.11000000	      0.24152784	     -4.36276196	     -7.49320785	     -1.37349885	      1.02558819	     -0.46867595	      0.80890474	      5.40349319	     -5.83873622	     -9.55612973	      8.37456543	     -4.56845859	      0.57566180	     -2.42754090	     -6.58244875	    -10.63933949	     11.56187497	     -1.53741299	     -9.23683974	      4.69992286	      0.02810043
      0.12000000	      0.24673689	     -4.38211498	     -7.53892397	     -1.37348633	      1.02560941	     -0.46857925	      0.78016841	      5.42878288	     -5.76126918	     -9.51968608	      8.34423386	     -4.56741123	      0.57115345	     -2.45309183	     -6.65772159	    -10.66264936	     11.58535836	     -1.53926253	     -9.24871462	      4.70276023	      0.03736531
      0.13000000	      0.24355452	     -4.38648768	     -7.56113675	     -1.37349449	      1.02561166	     -0.46852789	      0.78121465	      5.43411780	     -5.76349055	     -9.51602158	      8.34349052	     -4.56661826	      0.57074801	     -2.45875081	     -6.65696768	    -10.66296879	     11.58582813	     -1.53911346	     -9.25301373	      4.69151030	      0.02807602
      0.14000000	      0.23935693	     -4.39565135	     -7.60748291	     -1.37349349	      1.02562101	     -0.46843177	      0.77407601	      5.44752676	     -5.70741660	     -9.49878131	      8.31163780	     -4.53878074	      0.56797735	     -2.47290238	     -6.71894240	    -10.66571940	     11.59784337	     -1.53841834	     -9.25574443	      4.68471615	      0.02887147
      0.15000000	      0.23474476	     -4.39968868	     -7.63037951	     -1.37351716	      1.02562272	     -0.46837707	      0.77645303	      5.45269866	     -5.71044089	     -9.49398263	      8.31118648	     -4.53717870	      0.56949085	     -2.47873667	     -6.71751924	    -10.66565921	     11.59826266	     -1.53833116	     -9.26317843	      4.67360276	      0.02077980
      0.16000000	      0.22391322	     -4.41009653	     -7.68702799	     -1.37354169	      1.02562392	     -0.46826082	      0.78125963	      5.46829139	     -5.65021027	     -9.48416050	      8.27199429	     -4.48261816	      0.57424283	     -2.49601480	     -6.79162201	    -10.67027406	     11.61175965	     -1.53958640	     -9.26560810	      4.66728017	      0.03523111
      0.17000000	      0.21808922	     -4.41408592	     -7.71233952	     -1.37358554	      1.02562544	     -0.46819782	      0.78504085	      5.47387341	     -5.65402096	     -9.47788117	      8.27198744	     -4.48048337	      0.57760252	     -2.50239508	     -6.78991832	    -10.66945281	     11.61213934	     -1.53946793	     -9.27642648	      4.65570288	      0.02720055
      0.18000000	      0.20299261	     -4.42795188	     -7.77791372	     -1.37363962	      1.02562093	     -0.46806327	      0.79813225	      5.49367978	     -5.59276474	     -9.47277521	      8.23551397	     -4.41470814	      0.58964396	     -2.52559044	     -6.87366215	    -10.67924350	     11.62640396	     -1.53908176	     -9.28084272	      4.65222117	      0.05582154
      0.19000000	      0.19599438	     -4.43168885	     -7.80395022	     -1.37370408	      1.02562063	     -0.46799028	      0.80385900	      5.50000459	     -5.59700195	     -9.46426228	      8.23574378	     -4.41261552	      0.59479157	     -2.53248513	     -6.87210161	    -10.67742349	     11.62688860	     -1.53885623	     -9.29536911	      4.63945782	      0.04793251
      0.20000000	      0.17734906	     -4.44536587	     -7.87195534	     -1.37377611	      1.02561070	     -0.46784214	      0.82111540	      5.52110017	     -5.53282379	     -9.45713739	      8.19927387	     -4.35121592	      0.61455074	     -2.55743079	     -6.96178996	    -10.69363966	     11.64171413	     -1.53440816	     -9.29949409	      4.63464817	      0.08520298
      0.21000000	      0.16971842	     -4.44860384	     -7.89675909	     -1.37384276	      1.02560695	     -0.46776820	      0.82749044	      5.52731326	     -5.53687236	     -9.44829967	      8.19949315	     -4.34921403	      0.62038265	     -2.56415177	     -6.96039510	    -10.69138433	     11.64218910	     -1.53404307	     -9.31527452	      4.62162565	      0.07797909
